<svg width="371" height="353" viewBox="0 0 371 353" fill="none" xmlns="http://www.w3.org/2000/svg">
<path d="M344.712 93.7842V73.9644H341.62V93.7842C340.733 94.1418 339.998 94.7958 339.542 95.6339C339.085 96.4721 338.936 97.4424 339.118 98.3784C339.301 99.3145 339.805 100.158 340.543 100.764C341.282 101.371 342.209 101.703 343.166 101.703C344.123 101.703 345.05 101.371 345.789 100.764C346.527 100.158 347.031 99.3145 347.214 98.3784C347.396 97.4424 347.247 96.4721 346.791 95.6339C346.334 94.7958 345.599 94.1418 344.712 93.7842Z" fill="#E6E6E6"/>
<path d="M351.929 293.803H330.795V38.0095H322.548V293.803H301.415C298.911 293.803 296.431 294.294 294.117 295.249C291.803 296.205 289.701 297.604 287.93 299.369C286.159 301.134 284.754 303.229 283.795 305.535C282.837 307.841 282.344 310.312 282.344 312.808V312.808H371V312.808C371 310.312 370.507 307.84 369.548 305.535C368.59 303.229 367.185 301.134 365.414 299.369C363.643 297.604 361.541 296.205 359.227 295.249C356.913 294.294 354.433 293.803 351.929 293.803V293.803Z" fill="#E6E6E6"/>
<path d="M282.387 76.0189H370.957L365.541 8.55709C365.343 6.23087 364.279 4.06269 362.557 2.47909C360.836 0.895499 358.582 0.0111409 356.239 0H297.104C294.762 0.0111422 292.508 0.895499 290.787 2.47909C289.065 4.06269 288.001 6.23087 287.803 8.55709L282.387 76.0189Z" fill="#9C9191"/>
<path d="M31.4924 235.009H301.831V207.506C301.831 133.234 241.194 72.8087 166.662 72.8087C92.1294 72.8087 31.4924 133.234 31.4924 207.506V235.009Z" fill="#3F3D56"/>
<path opacity="0.2" d="M31.4924 235.009H301.831V207.506C301.831 133.234 241.194 72.8087 166.662 72.8087C92.1294 72.8087 31.4924 133.234 31.4924 207.506V235.009Z" fill="black"/>
<path d="M66.5294 244.53H274.579C274.381 233.622 269.897 223.227 262.091 215.579C254.284 207.93 243.779 203.639 232.831 203.627H108.277C97.3295 203.639 86.8237 207.93 79.0173 215.579C71.2109 223.227 66.7271 233.622 66.5294 244.53V244.53Z" fill="#9C9191"/>
<path d="M41.7539 240.298C64.8139 240.298 83.5078 221.67 83.5078 198.69C83.5078 175.711 64.8139 157.082 41.7539 157.082C18.6939 157.082 0 175.711 0 198.69C0 221.67 18.6939 240.298 41.7539 240.298Z" fill="#3F3D56"/>
<path d="M295.108 240.298C318.168 240.298 336.862 221.67 336.862 198.69C336.862 175.711 318.168 157.082 295.108 157.082C272.048 157.082 253.354 175.711 253.354 198.69C253.354 221.67 272.048 240.298 295.108 240.298Z" fill="#3F3D56"/>
<path d="M263.616 219.847V235.362H70.7693V219.847H27.6V295.466C27.6 300.1 29.447 304.543 32.7347 307.819C36.0223 311.095 40.4813 312.936 45.1308 312.936H289.254C291.556 312.936 293.836 312.484 295.963 311.606C298.09 310.728 300.022 309.441 301.65 307.819C303.278 306.197 304.569 304.271 305.451 302.152C306.332 300.032 306.785 297.761 306.785 295.466V219.847H263.616Z" fill="#3F3D56"/>
<path opacity="0.2" d="M41.7539 207.153C46.4441 207.153 50.2462 203.364 50.2462 198.69C50.2462 194.017 46.4441 190.228 41.7539 190.228C37.0637 190.228 33.2616 194.017 33.2616 198.69C33.2616 203.364 37.0637 207.153 41.7539 207.153Z" fill="black"/>
<path opacity="0.2" d="M295.108 207.153C299.798 207.153 303.6 203.364 303.6 198.69C303.6 194.017 299.798 190.228 295.108 190.228C290.418 190.228 286.616 194.017 286.616 198.69C286.616 203.364 290.418 207.153 295.108 207.153Z" fill="black"/>
<path d="M182.043 68.0557C182.043 68.0557 182.878 83.8628 188.722 87.1906C194.566 90.5184 188.722 112.981 188.722 112.981L161.171 113.813L159.501 87.1906C159.501 87.1906 162.841 76.3752 161.171 71.3835C159.501 66.3918 182.043 68.0557 182.043 68.0557Z" fill="#FFB8B8"/>
<path d="M212.933 287.691L202.915 299.339L218.778 314.314L227.126 297.675L212.933 287.691Z" fill="#FFB8B8"/>
<path d="M141.969 287.691L151.988 299.339L136.125 314.314L127.776 297.675L141.969 287.691Z" fill="#FFB8B8"/>
<path d="M207.507 177.458C207.507 177.458 267.617 197.425 264.278 216.559C260.938 235.694 235.057 303.083 235.057 303.083C235.057 303.083 220.865 303.083 210.011 288.108L217.525 271.468C217.525 271.468 214.186 262.317 220.03 260.653C225.874 258.989 229.213 229.871 229.213 229.871C229.213 229.871 186.635 226.543 177.451 210.736L160.754 170.802L207.507 177.458Z" fill="#2F2E41"/>
<path d="M147.396 177.458C147.396 177.458 87.285 197.425 90.6245 216.559C93.9639 235.694 119.845 303.083 119.845 303.083C119.845 303.083 134.038 303.083 144.891 288.108L137.377 271.468C137.377 271.468 140.717 262.317 134.873 260.653C129.029 258.989 125.689 229.871 125.689 229.871C125.689 229.871 168.268 226.543 177.451 210.736L194.149 170.802L147.396 177.458Z" fill="#2F2E41"/>
<path d="M215.855 308.074C215.855 308.074 224.204 300.587 225.039 306.411C225.874 312.234 224.204 335.529 224.204 335.529C224.204 335.529 232.553 353 220.03 353C207.507 353 201.663 339.689 203.332 326.377C205.002 313.066 197.488 308.074 197.488 308.074C197.488 308.074 188.305 289.771 197.488 288.108C206.672 286.444 210.011 290.603 210.011 290.603C210.011 290.603 206.672 305.579 215.855 308.074Z" fill="#2F2E41"/>
<path d="M139.047 308.074C139.047 308.074 130.698 300.587 129.864 306.411C129.029 312.234 130.698 335.529 130.698 335.529C130.698 335.529 122.35 353 134.873 353C147.396 353 153.24 339.689 151.57 326.377C149.9 313.066 157.414 308.074 157.414 308.074C157.414 308.074 166.598 289.771 157.414 288.108C148.231 286.444 144.891 290.603 144.891 290.603C144.891 290.603 148.231 305.579 139.047 308.074Z" fill="#2F2E41"/>
<path d="M169.103 77.6231C179.708 77.6231 188.305 69.0561 188.305 58.4882C188.305 47.9202 179.708 39.3532 169.103 39.3532C158.498 39.3532 149.9 47.9202 149.9 58.4882C149.9 69.0561 158.498 77.6231 169.103 77.6231Z" fill="#FFB8B8"/>
<path d="M172.025 91.3503L160.336 82.1988L131.951 95.5101L131.116 171.218C131.116 171.218 113.583 179.537 118.593 190.353C118.593 190.353 133.62 193.681 140.299 200.336C146.978 206.992 184.548 197.84 200.41 192.849C216.273 187.857 220.447 182.033 220.447 182.033L204.585 159.571L213.768 102.166L185.386 83.1502L172.025 91.3503Z" fill="#E6E6E6"/>
<path d="M192.447 45.4645C192.029 44.8988 191.647 44.3075 191.303 43.694C190.707 42.249 191.648 40.5461 190.769 39.1967C189.872 37.8193 187.594 37.5288 186.045 36.593C183.658 35.1514 183.224 32.3227 180.988 30.7341C179.376 29.5895 177.078 29.281 174.925 29.3463C172.772 29.4116 170.648 29.7995 168.493 29.8421C165.586 29.9068 162.701 29.3188 160.052 28.1219L161.641 31.2195C159.875 30.836 158.188 30.1546 156.653 29.2046C155.95 30.0734 157.236 31.392 156.438 32.2069C156.112 32.4697 155.725 32.6484 155.312 32.7271C152.247 33.5951 149.361 34.9982 146.788 36.8713C146.192 37.2488 145.7 37.7672 145.354 38.3803C144.939 39.2951 145.307 40.3054 145.275 41.278C145.218 43.0452 143.864 44.5863 142.904 46.1784C141.943 47.7704 141.424 49.8345 142.849 51.1857C143.196 51.4602 143.528 51.7522 143.845 52.0606C145.272 53.7388 142.745 56.1964 143.963 57.9773C144.492 58.7505 145.576 59.1418 146.518 59.5986C148.323 60.4394 149.841 61.7879 150.886 63.478L150.154 58.1216C150.116 57.9892 150.109 57.8497 150.134 57.7143C150.159 57.5788 150.216 57.4511 150.3 57.3414C150.655 56.9811 151.398 57.1247 151.887 56.8862C152.426 56.6237 152.466 56.0215 152.445 55.5172L152.28 51.6283C152.206 49.8795 152.186 49.6473 153.478 48.2358C154.381 47.2496 155.801 46.6546 157.228 46.2171C160.488 45.2171 163.995 44.8712 167.461 44.5332C171.486 44.1407 176.018 42.1945 179.144 44.2609C181.703 45.9524 182.554 48.7327 183.787 51.1986C184.895 53.415 187.739 59.9408 190.107 56.4083C191.594 54.1899 193.868 47.9345 192.447 45.4645Z" fill="#2F2E41"/>
<path d="M172.399 52.9374C172.32 52.9375 172.244 52.9688 172.188 53.0245C172.132 53.0802 172.101 53.1558 172.101 53.2346V61.246C172.101 61.3248 172.132 61.4003 172.188 61.4561C172.244 61.5118 172.32 61.5431 172.399 61.5432H186.238C186.318 61.5431 186.393 61.5118 186.449 61.4561C186.505 61.4003 186.537 61.3248 186.537 61.246V53.2346C186.537 53.1558 186.505 53.0802 186.449 53.0245C186.393 52.9688 186.318 52.9375 186.238 52.9374L172.399 52.9374Z" fill="#3F3D56"/>
<path d="M173.946 53.6439C173.798 53.6441 173.657 53.7025 173.553 53.8064C173.448 53.9102 173.39 54.0511 173.39 54.1979V60.2826C173.39 60.4295 173.448 60.5703 173.553 60.6742C173.657 60.7781 173.798 60.8365 173.946 60.8367H184.692C184.839 60.8365 184.981 60.7781 185.085 60.6742C185.189 60.5703 185.248 60.4295 185.248 60.2826V54.1979C185.248 54.0511 185.189 53.9102 185.085 53.8064C184.981 53.7025 184.839 53.6441 184.692 53.6439H173.946Z" fill="#FF6584"/>
<path d="M172.555 55.5764H165.346V57.2403H172.555V55.5764Z" fill="#3F3D56"/>
<path d="M152.801 52.9374C152.722 52.9375 152.646 52.9689 152.591 53.0246C152.535 53.0803 152.503 53.1558 152.503 53.2346V61.246C152.503 61.3248 152.535 61.4003 152.591 61.456C152.646 61.5117 152.722 61.543 152.801 61.5432H166.641C166.72 61.543 166.796 61.5117 166.852 61.456C166.908 61.4003 166.939 61.3248 166.939 61.246V53.2346C166.939 53.1558 166.908 53.0803 166.852 53.0246C166.796 52.9689 166.72 52.9375 166.641 52.9374L152.801 52.9374Z" fill="#3F3D56"/>
<path d="M154.348 53.6439C154.201 53.644 154.059 53.7024 153.955 53.8063C153.851 53.9102 153.792 54.051 153.792 54.1979V60.2826C153.792 60.4296 153.851 60.5704 153.955 60.6743C154.059 60.7781 154.201 60.8365 154.348 60.8367H165.094C165.242 60.8365 165.383 60.7781 165.487 60.6743C165.592 60.5704 165.65 60.4296 165.65 60.2826V54.1979C165.65 54.051 165.592 53.9102 165.487 53.8063C165.383 53.7024 165.242 53.644 165.094 53.6439H154.348Z" fill="#9C9191"/>
<path d="M145.236 152.937H193.172C195.086 152.937 196.922 153.694 198.275 155.043C199.628 156.391 200.388 158.221 200.388 160.128V160.128H138.02C138.02 158.221 138.78 156.391 140.133 155.043C141.487 153.694 143.322 152.937 145.236 152.937V152.937Z" fill="#3F3D56"/>
<path d="M196.523 152.423C196.242 152.424 195.964 152.472 195.698 152.563C195.607 152.198 195.386 151.879 195.075 151.666C194.764 151.453 194.386 151.361 194.011 151.407C193.637 151.453 193.293 151.634 193.043 151.916C192.794 152.198 192.656 152.561 192.657 152.937C192.657 152.944 192.659 152.952 192.659 152.959C192.466 152.977 192.275 153.017 192.09 153.077C192.038 152.869 191.943 152.675 191.811 152.506C191.68 152.337 191.514 152.197 191.326 152.095C191.821 151.822 192.213 151.395 192.441 150.878C192.731 150.907 193.024 150.875 193.3 150.783C193.576 150.691 193.83 150.543 194.045 150.347C194.26 150.151 194.431 149.912 194.547 149.646C194.663 149.38 194.721 149.092 194.718 148.802C194.715 148.512 194.651 148.226 194.53 147.962C194.408 147.698 194.232 147.463 194.014 147.272C193.795 147.08 193.538 146.937 193.26 146.851C192.981 146.765 192.688 146.738 192.399 146.773C192.119 146.774 191.84 146.822 191.575 146.913C191.527 146.711 191.439 146.521 191.316 146.354C191.192 146.186 191.036 146.046 190.857 145.941C190.677 145.835 190.478 145.767 190.272 145.741C190.065 145.714 189.856 145.73 189.655 145.786C189.455 145.843 189.268 145.939 189.106 146.069C188.944 146.2 188.81 146.361 188.713 146.545C188.615 146.728 188.556 146.929 188.539 147.136C188.521 147.343 188.546 147.551 188.612 147.748C188.55 147.79 188.492 147.838 188.435 147.886C188.143 147.636 187.765 147.51 187.381 147.536C187.183 146.969 186.79 146.49 186.273 146.182C185.755 145.873 185.146 145.757 184.55 145.852C183.955 145.947 183.413 146.247 183.018 146.701C182.623 147.155 182.4 147.732 182.39 148.333C182.183 148.349 181.979 148.39 181.781 148.454C181.759 148.367 181.729 148.282 181.692 148.2C181.896 148.021 182.059 147.802 182.172 147.556C182.285 147.31 182.345 147.043 182.348 146.773C182.312 146.195 182.048 145.654 181.613 145.269C181.179 144.884 180.609 144.686 180.028 144.718C179.748 144.72 179.469 144.767 179.204 144.858C179.157 144.656 179.068 144.466 178.945 144.299C178.821 144.132 178.665 143.991 178.486 143.886C178.307 143.781 178.108 143.713 177.901 143.686C177.695 143.66 177.485 143.675 177.285 143.732C177.084 143.788 176.897 143.884 176.735 144.015C176.573 144.145 176.44 144.307 176.342 144.49C176.245 144.673 176.185 144.874 176.168 145.081C176.151 145.288 176.175 145.496 176.241 145.693C175.916 145.918 175.648 146.214 175.457 146.558C175.266 146.903 175.157 147.287 175.139 147.68C175.117 147.7 175.092 147.715 175.072 147.736C175.11 147.589 175.131 147.438 175.132 147.287C175.096 146.708 174.831 146.168 174.397 145.783C173.962 145.398 173.393 145.2 172.812 145.232C172.532 145.233 172.253 145.281 171.988 145.372C171.94 145.17 171.852 144.98 171.729 144.813C171.605 144.646 171.449 144.505 171.27 144.4C171.09 144.294 170.891 144.227 170.685 144.2C170.478 144.173 170.269 144.189 170.068 144.245C169.868 144.302 169.681 144.398 169.519 144.528C169.357 144.659 169.223 144.82 169.126 145.004C169.028 145.187 168.969 145.388 168.952 145.595C168.934 145.802 168.959 146.01 169.025 146.207C168.682 146.442 168.403 146.757 168.21 147.124C168.016 147.491 167.916 147.899 167.916 148.314C167.916 148.728 168.016 149.137 168.21 149.504C168.403 149.871 168.682 150.186 169.025 150.421C168.92 150.72 168.92 151.045 169.025 151.343C168.766 151.523 168.543 151.747 168.365 152.007C168.27 151.662 168.056 151.361 167.761 151.156C167.467 150.952 167.109 150.857 166.751 150.888C166.394 150.919 166.058 151.073 165.803 151.325C165.548 151.577 165.389 151.91 165.354 152.266C165.148 152.145 164.924 152.055 164.692 151.999C165.109 151.724 165.438 151.335 165.638 150.878C165.928 150.907 166.221 150.875 166.497 150.783C166.773 150.691 167.027 150.543 167.242 150.347C167.457 150.151 167.628 149.912 167.744 149.646C167.86 149.38 167.918 149.092 167.915 148.802C167.912 148.512 167.848 148.226 167.727 147.962C167.605 147.698 167.429 147.463 167.21 147.272C166.992 147.08 166.735 146.937 166.457 146.851C166.178 146.765 165.885 146.738 165.596 146.773C165.315 146.774 165.037 146.822 164.772 146.913C164.724 146.711 164.636 146.521 164.512 146.354C164.389 146.186 164.233 146.046 164.054 145.941C163.874 145.835 163.675 145.767 163.469 145.741C163.262 145.714 163.052 145.73 162.852 145.786C162.652 145.843 162.465 145.939 162.303 146.069C162.141 146.2 162.007 146.361 161.91 146.545C161.812 146.728 161.753 146.929 161.735 147.136C161.718 147.343 161.743 147.551 161.808 147.748C161.775 147.77 161.746 147.797 161.714 147.822C161.633 147.814 161.555 147.8 161.472 147.8C161.192 147.802 160.913 147.849 160.648 147.94C160.638 147.901 160.622 147.865 160.61 147.828C160.66 147.599 160.656 147.362 160.598 147.135C160.541 146.908 160.431 146.698 160.278 146.52C160.125 146.343 159.933 146.203 159.717 146.112C159.5 146.021 159.266 145.981 159.031 145.996C158.897 145.623 158.678 145.287 158.392 145.012C158.106 144.738 157.759 144.534 157.381 144.415C157.002 144.296 156.6 144.267 156.208 144.328C155.816 144.39 155.443 144.541 155.119 144.769C154.795 144.998 154.529 145.299 154.341 145.647C154.152 145.996 154.048 146.383 154.035 146.779C154.022 147.174 154.101 147.567 154.266 147.927C154.43 148.287 154.677 148.605 154.985 148.854C154.807 148.874 154.633 148.912 154.463 148.967C154.402 148.717 154.278 148.486 154.104 148.296C153.929 148.106 153.709 147.963 153.464 147.881C153.219 147.798 152.957 147.779 152.703 147.824C152.448 147.87 152.209 147.979 152.008 148.141C151.779 147.869 151.491 147.652 151.167 147.504C150.843 147.356 150.489 147.282 150.133 147.287C149.852 147.288 149.574 147.335 149.308 147.427C149.261 147.225 149.173 147.034 149.049 146.867C148.926 146.7 148.77 146.56 148.59 146.454C148.411 146.349 148.212 146.281 148.005 146.254C147.799 146.228 147.589 146.243 147.389 146.3C147.188 146.356 147.002 146.453 146.84 146.583C146.678 146.713 146.544 146.875 146.446 147.058C146.349 147.242 146.29 147.443 146.272 147.649C146.255 147.856 146.28 148.064 146.345 148.261C146.003 148.497 145.723 148.812 145.53 149.179C145.337 149.546 145.236 149.954 145.236 150.369C145.236 150.376 145.238 150.384 145.238 150.392C144.873 150.337 144.499 150.377 144.154 150.508C144.106 150.306 144.018 150.116 143.895 149.949C143.771 149.782 143.615 149.641 143.436 149.536C143.256 149.431 143.057 149.363 142.851 149.336C142.644 149.31 142.435 149.325 142.234 149.382C142.034 149.438 141.847 149.534 141.685 149.665C141.523 149.795 141.389 149.957 141.292 150.14C141.194 150.323 141.135 150.525 141.118 150.731C141.1 150.938 141.125 151.146 141.191 151.343C140.694 151.678 140.33 152.177 140.164 152.751C139.997 153.326 140.038 153.941 140.279 154.489C140.52 155.036 140.947 155.483 141.484 155.75C142.021 156.017 142.635 156.088 143.219 155.95C143.312 156.486 143.574 156.979 143.967 157.356C144.36 157.734 144.863 157.977 145.404 158.05C145.945 158.123 146.495 158.023 146.975 157.763C147.454 157.504 147.838 157.099 148.072 156.607C149.928 156.848 151.812 156.763 153.64 156.357C153.81 156.844 154.124 157.268 154.54 157.574C154.956 157.879 155.455 158.053 155.972 158.072C156.489 158.09 156.999 157.953 157.436 157.677C157.873 157.402 158.217 157.002 158.422 156.528C158.798 156.521 159.167 156.43 159.503 156.262C159.738 156.676 160.085 157.017 160.504 157.245C160.923 157.474 161.397 157.581 161.874 157.556C162.351 157.53 162.812 157.372 163.203 157.1C163.595 156.828 163.903 156.452 164.092 156.015C164.665 155.906 165.258 156.002 165.769 156.284C166.279 156.566 166.674 157.017 166.885 157.559C167.229 157.089 167.673 156.7 168.184 156.418C168.695 156.136 169.262 155.968 169.845 155.927C170.363 156.071 170.914 156.045 171.416 155.854C171.919 155.663 172.346 155.316 172.636 154.865C172.474 155.49 172.555 156.153 172.862 156.722C173.169 157.291 173.68 157.724 174.293 157.934C174.906 158.144 175.576 158.116 176.169 157.855C176.762 157.595 177.235 157.121 177.493 156.528C177.869 156.521 178.239 156.43 178.574 156.262C178.81 156.676 179.156 157.017 179.575 157.245C179.994 157.474 180.469 157.581 180.946 157.556C181.423 157.53 181.883 157.372 182.275 157.1C182.666 156.828 182.974 156.452 183.163 156.015C183.539 156.007 183.908 155.916 184.244 155.748C184.426 156.07 184.675 156.349 184.975 156.565C185.276 156.781 185.619 156.929 185.983 156.999C186.347 157.07 186.721 157.06 187.081 156.971C187.44 156.883 187.776 156.717 188.065 156.486C188.155 156.978 188.386 157.432 188.732 157.794C189.078 158.155 189.522 158.408 190.01 158.521C190.498 158.633 191.009 158.601 191.479 158.428C191.949 158.255 192.358 157.949 192.656 157.547C192.965 157.783 193.324 157.946 193.706 158.023C194.088 158.1 194.483 158.088 194.86 157.99C195.237 157.892 195.587 157.709 195.882 157.456C196.178 157.203 196.411 156.885 196.565 156.528C196.855 156.557 197.147 156.525 197.423 156.433C197.7 156.342 197.954 156.193 198.169 155.997C198.383 155.801 198.554 155.562 198.67 155.296C198.786 155.03 198.845 154.742 198.842 154.452C198.839 154.162 198.775 153.876 198.653 153.612C198.532 153.348 198.356 153.113 198.137 152.922C197.918 152.73 197.661 152.587 197.383 152.501C197.105 152.415 196.812 152.388 196.523 152.423L196.523 152.423ZM150.453 151.363C150.451 151.375 150.449 151.388 150.446 151.401C150.427 151.4 150.409 151.396 150.39 151.396C150.313 151.398 150.237 151.405 150.161 151.419C150.165 151.41 150.171 151.401 150.175 151.392C150.268 151.387 150.361 151.378 150.453 151.363V151.363ZM171.988 150.508C171.98 150.478 171.968 150.451 171.958 150.422C172.352 150.15 172.662 149.775 172.854 149.337C173.193 149.336 173.528 149.263 173.837 149.123C174.146 148.984 174.422 148.781 174.647 148.529C174.627 148.627 174.617 148.727 174.616 148.828C174.618 148.984 174.645 149.14 174.695 149.289C174.252 149.596 173.917 150.034 173.736 150.54C173.176 150.323 172.556 150.312 171.988 150.508V150.508ZM187.426 150.7C187.425 150.668 187.429 150.636 187.426 150.605C187.492 150.604 187.558 150.6 187.623 150.591C187.723 150.924 187.89 151.232 188.114 151.498C188.065 151.511 188.014 151.52 187.967 151.536C187.883 151.205 187.693 150.912 187.426 150.7V150.7Z" fill="#F9A825"/>
<path d="M143.212 155.505C142.481 155.505 141.757 155.653 141.086 155.941C140.414 156.229 139.808 156.65 139.305 157.179C138.802 157.708 138.413 158.333 138.161 159.017C137.908 159.701 137.798 160.428 137.838 161.156L141.328 208.984C141.402 210.355 142 211.645 143 212.59C144 213.534 145.325 214.06 146.702 214.06H191.706C193.084 214.06 194.409 213.534 195.409 212.59C196.408 211.645 197.007 210.355 197.08 208.984L200.571 161.156C200.61 160.428 200.5 159.701 200.248 159.017C199.995 158.333 199.606 157.708 199.103 157.179C198.6 156.65 197.994 156.229 197.323 155.941C196.651 155.653 195.927 155.505 195.196 155.505H143.212Z" fill="#3F3D56"/>
<path d="M148.844 155.505H145.751V214.06H148.844V155.505Z" fill="#9C9191"/>
<path d="M157.607 155.505H154.514V214.06H157.607V155.505Z" fill="#9C9191"/>
<path d="M166.369 155.505H163.277V214.06H166.369V155.505Z" fill="#9C9191"/>
<path d="M175.132 155.505H172.039V214.06H175.132V155.505Z" fill="#9C9191"/>
<path d="M183.894 155.505H180.802V214.06H183.894V155.505Z" fill="#9C9191"/>
<path d="M192.657 155.505H189.564V214.06H192.657V155.505Z" fill="#9C9191"/>
<path d="M189.557 184.529L179.538 190.353C179.538 190.353 155.327 210.32 172.025 213.648C188.722 216.975 192.896 199.504 192.896 199.504L198.74 192.849L189.557 184.529Z" fill="#FFB8B8"/>
<path d="M141.969 180.369L151.988 186.193C151.988 186.193 176.199 206.16 159.501 209.488C142.804 212.816 138.63 195.345 138.63 195.345L132.786 188.689L141.969 180.369Z" fill="#FFB8B8"/>
<path d="M202.915 101.334L213.768 102.166C213.768 102.166 222.117 109.653 221.282 119.637C221.282 119.637 228.796 141.268 227.126 150.419C227.126 150.419 228.796 165.394 226.291 171.218C223.787 177.042 202.915 199.505 202.915 199.505C202.915 199.505 183.713 184.529 184.548 183.697L209.594 158.739L197.071 142.1L202.915 101.334Z" fill="#E6E6E6"/>
<path d="M131.951 95.5102L131.533 95.9262C131.533 95.9262 112.749 103.83 113.584 113.813C113.584 113.813 106.07 135.444 107.739 144.595C107.739 144.595 106.07 159.571 108.574 165.394C111.079 171.218 131.951 193.681 131.951 193.681C131.951 193.681 151.153 178.706 150.318 177.874L125.272 152.915L137.795 136.276L131.951 95.5102Z" fill="#E6E6E6"/>
</svg>
